<svg width="483" height="483" fill="none" xmlns="http://www.w3.org/2000/svg"><g clip-path="url(#a)" filter="url(#b)"><path d="M241.5 318.667a77.17 77.17 0 0 1-71.293-47.637 77.173 77.173 0 0 1 16.728-84.095 77.171 77.171 0 0 1 84.095-16.728 77.169 77.169 0 0 1 25.035 125.858 77.164 77.164 0 0 1-54.565 22.602Zm-121.865 0H29.292A19.292 19.292 0 0 1 10 299.375a116.175 116.175 0 0 1 98.986-114.129 19.294 19.294 0 0 1 21.22 24.423 115.928 115.928 0 0 0-4.456 31.831 114.541 114.541 0 0 0 11.305 49.58 19.289 19.289 0 0 1-1.09 18.571 19.284 19.284 0 0 1-16.273 9.016h-.057ZM337.958 473H145.042a19.292 19.292 0 0 1-19.292-19.292 115.75 115.75 0 0 1 231.5 0A19.292 19.292 0 0 1 337.958 473Zm19.292-308.667a77.171 77.171 0 0 1-71.293-47.636 77.17 77.17 0 0 1 56.239-105.214 77.164 77.164 0 0 1 79.216 32.812 77.168 77.168 0 0 1-9.597 97.437 77.169 77.169 0 0 1-54.565 22.601Zm-231.5 0a77.16 77.16 0 0 1-71.293-47.636 77.166 77.166 0 1 1 148.46-29.53 77.166 77.166 0 0 1-77.167 77.166Zm327.958 154.334h-90.343a19.29 19.29 0 0 1-17.362-27.587 114.531 114.531 0 0 0 11.247-49.58 115.939 115.939 0 0 0-4.553-31.831 19.307 19.307 0 0 1-.292-9.52 19.294 19.294 0 0 1 21.609-14.903A116.173 116.173 0 0 1 473 299.375a19.295 19.295 0 0 1-19.292 19.292Z" fill="#000" fill-opacity=".03"/></g><defs><clipPath id="a"><path fill="#fff" transform="translate(10 10)" d="M0 0h463v463H0z"/></clipPath><filter id="b" x="0" y="0" width="483" height="483" filterUnits="userSpaceOnUse" color-interpolation-filters="sRGB"><feFlood flood-opacity="0" result="BackgroundImageFix"/><feBlend in="SourceGraphic" in2="BackgroundImageFix" result="shape"/><feGaussianBlur stdDeviation="5" result="effect1_foregroundBlur_2_19"/></filter></defs></svg>