<svg width="463" height="463" fill="none" xmlns="http://www.w3.org/2000/svg"><path d="M231.5 308.667a77.17 77.17 0 0 1-71.293-47.637 77.173 77.173 0 0 1 16.728-84.095 77.171 77.171 0 0 1 84.095-16.728 77.169 77.169 0 0 1 25.035 125.858 77.164 77.164 0 0 1-54.565 22.602Zm-121.865 0H19.292A19.292 19.292 0 0 1 0 289.375a116.175 116.175 0 0 1 98.986-114.129 19.294 19.294 0 0 1 21.22 24.423 115.928 115.928 0 0 0-4.456 31.831 114.541 114.541 0 0 0 11.305 49.58 19.289 19.289 0 0 1-1.09 18.571 19.284 19.284 0 0 1-16.273 9.016h-.057ZM327.958 463H135.042a19.292 19.292 0 0 1-19.292-19.292 115.75 115.75 0 0 1 231.5 0A19.292 19.292 0 0 1 327.958 463Zm19.292-308.667a77.171 77.171 0 0 1-71.293-47.636A77.17 77.17 0 0 1 332.196 1.483a77.164 77.164 0 0 1 79.216 32.812 77.168 77.168 0 0 1-9.597 97.437 77.169 77.169 0 0 1-54.565 22.601Zm-231.5 0a77.16 77.16 0 0 1-71.293-47.636 77.166 77.166 0 1 1 71.293 47.636Zm327.958 154.334h-90.343a19.29 19.29 0 0 1-17.362-27.587 114.531 114.531 0 0 0 11.247-49.58 115.939 115.939 0 0 0-4.553-31.831 19.307 19.307 0 0 1-.292-9.52 19.294 19.294 0 0 1 21.609-14.903A116.173 116.173 0 0 1 463 289.375a19.295 19.295 0 0 1-19.292 19.292Z" fill="#000" fill-opacity=".03"/></svg>