<svg width="483" height="483" viewBox="0 0 483 483" fill="none" xmlns="http://www.w3.org/2000/svg">
<g clip-path="url(#clip0_19_714)" filter="url(#filter0_f_19_714)">
<path d="M241.5 318.667C226.238 318.667 211.318 314.141 198.628 305.662C185.939 297.183 176.048 285.131 170.207 271.03C164.367 256.93 162.839 241.414 165.816 226.446C168.794 211.477 176.143 197.727 186.935 186.935C197.727 176.143 211.477 168.794 226.446 165.816C241.414 162.839 256.93 164.367 271.03 170.207C285.131 176.048 297.183 185.939 305.662 198.629C314.141 211.319 318.667 226.238 318.667 241.5C318.667 261.966 310.537 281.594 296.065 296.065C281.594 310.537 261.966 318.667 241.5 318.667ZM119.635 318.667H29.2917C24.1752 318.667 19.2683 316.634 15.6504 313.016C12.0325 309.398 10 304.491 10 299.375C10.1828 271.674 20.2579 244.95 38.4081 224.023C56.5583 203.096 81.5889 189.344 108.986 185.246C112.169 184.799 115.414 185.156 118.424 186.283C121.435 187.41 124.116 189.271 126.225 191.698C128.333 194.124 129.802 197.039 130.497 200.178C131.193 203.316 131.093 206.579 130.206 209.669C127.25 220.021 125.75 230.734 125.75 241.5C125.756 258.665 129.619 275.609 137.055 291.08C138.453 294.016 139.087 297.258 138.896 300.505C138.706 303.752 137.697 306.898 135.965 309.651C134.233 312.404 131.832 314.674 128.987 316.25C126.142 317.826 122.945 318.658 119.692 318.667H119.635ZM337.958 473H145.042C139.925 473 135.018 470.968 131.4 467.35C127.783 463.732 125.75 458.825 125.75 453.708C125.75 423.01 137.945 393.568 159.652 371.861C181.36 350.153 210.801 337.958 241.5 337.958C272.199 337.958 301.64 350.153 323.348 371.861C345.055 393.568 357.25 423.01 357.25 453.708C357.25 458.825 355.217 463.732 351.6 467.35C347.982 470.968 343.075 473 337.958 473ZM357.25 164.333C341.988 164.333 327.068 159.808 314.379 151.328C301.689 142.849 291.798 130.797 285.957 116.697C280.117 102.597 278.589 87.0811 281.566 72.1122C284.544 57.1434 291.893 43.3936 302.685 32.6016C313.477 21.8097 327.227 14.4603 342.196 11.4828C357.164 8.50528 372.68 10.0334 386.78 15.874C400.881 21.7146 412.933 31.6052 421.412 44.2952C429.891 56.9852 434.417 71.9046 434.417 87.1667C434.417 107.633 426.287 127.26 411.815 141.732C397.343 156.203 377.716 164.333 357.25 164.333ZM125.75 164.333C110.488 164.333 95.5685 159.808 82.8785 151.328C70.1885 142.849 60.2979 130.797 54.4573 116.697C48.6167 102.597 47.0886 87.0811 50.0661 72.1122C53.0436 57.1434 60.393 43.3936 71.1849 32.6016C81.9769 21.8097 95.7267 14.4603 110.696 11.4828C125.664 8.50528 141.18 10.0334 155.28 15.874C169.381 21.7146 181.433 31.6052 189.912 44.2952C198.391 56.9852 202.917 71.9046 202.917 87.1667C202.917 107.633 194.787 127.26 180.315 141.732C165.844 156.203 146.216 164.333 125.75 164.333ZM453.708 318.667H363.365C360.113 318.658 356.916 317.826 354.071 316.25C351.226 314.674 348.825 312.404 347.093 309.651C345.36 306.898 344.352 303.752 344.161 300.505C343.971 297.258 344.604 294.016 346.003 291.08C353.419 275.604 357.263 258.66 357.25 241.5C357.218 230.73 355.686 220.016 352.697 209.669C351.806 206.57 351.706 203.297 352.405 200.149C353.105 197.002 354.583 194.08 356.703 191.65C358.823 189.221 361.519 187.362 364.543 186.243C367.567 185.124 370.824 184.781 374.014 185.246C401.411 189.344 426.442 203.096 444.592 224.023C462.742 244.95 472.817 271.674 473 299.375C473 304.491 470.967 309.398 467.35 313.016C463.732 316.634 458.825 318.667 453.708 318.667Z" fill="white" fill-opacity="0.08"/>
</g>
<defs>
<filter id="filter0_f_19_714" x="0" y="0" width="483" height="483" filterUnits="userSpaceOnUse" color-interpolation-filters="sRGB">
<feFlood flood-opacity="0" result="BackgroundImageFix"/>
<feBlend mode="normal" in="SourceGraphic" in2="BackgroundImageFix" result="shape"/>
<feGaussianBlur stdDeviation="5" result="effect1_foregroundBlur_19_714"/>
</filter>
<clipPath id="clip0_19_714">
<rect width="463" height="463" fill="white" transform="translate(10 10)"/>
</clipPath>
</defs>
</svg>
