<svg width="224" height="37" viewBox="0 0 224 37" fill="none" xmlns="http://www.w3.org/2000/svg">
<path d="M0 35.616L14.688 2.016H25.824L40.512 35.616H28.8L17.952 7.392H22.368L11.52 35.616H0ZM8.736 29.76L11.616 21.6H27.072L29.952 29.76H8.736Z" fill="white" fill-opacity="0.9"/>
<path d="M52.4591 36.096C50.3791 36.096 48.4911 35.68 46.7951 34.848C45.1311 33.984 43.8191 32.656 42.8591 30.864C41.8991 29.04 41.4191 26.704 41.4191 23.856V9.36H52.2671V21.984C52.2671 23.84 52.5711 25.136 53.1791 25.872C53.7871 26.608 54.6191 26.976 55.6751 26.976C56.3151 26.976 56.9071 26.816 57.4511 26.496C58.0271 26.144 58.4911 25.584 58.8431 24.816C59.1951 24.016 59.3711 22.976 59.3711 21.696V9.36H70.2191V35.616H59.8991V28.032L61.9631 30.096C61.0351 32.144 59.7071 33.664 57.9791 34.656C56.2831 35.616 54.4431 36.096 52.4591 36.096Z" fill="white" fill-opacity="0.9"/>
<path d="M87.7028 36.096C84.0868 36.096 81.2708 35.232 79.2548 33.504C77.2388 31.744 76.2308 29.056 76.2308 25.44V3.456H87.0788V25.344C87.0788 26.144 87.2868 26.768 87.7028 27.216C88.1507 27.664 88.6947 27.888 89.3347 27.888C90.2627 27.888 91.0788 27.648 91.7828 27.168L94.3747 34.704C93.5427 35.184 92.5348 35.536 91.3508 35.76C90.1988 35.984 88.9827 36.096 87.7028 36.096ZM72.6308 18.72V10.8H92.4548V18.72H72.6308Z" fill="white" fill-opacity="0.9"/>
<path d="M115.349 8.88C117.365 8.88 119.189 9.296 120.821 10.128C122.453 10.928 123.733 12.192 124.661 13.92C125.621 15.648 126.101 17.888 126.101 20.64V35.616H115.253V22.512C115.253 20.88 114.965 19.728 114.389 19.056C113.813 18.352 113.029 18 112.037 18C111.301 18 110.613 18.176 109.973 18.528C109.365 18.848 108.869 19.392 108.485 20.16C108.133 20.928 107.957 21.968 107.957 23.28V35.616H97.1089V0H107.957V17.04L105.365 14.832C106.389 12.848 107.765 11.36 109.493 10.368C111.253 9.376 113.205 8.88 115.349 8.88Z" fill="white" fill-opacity="0.9"/>
<path d="M140.412 35.616V5.088H128.604V2.016H155.772V5.088H143.964V35.616H140.412Z" fill="white" fill-opacity="0.9"/>
<path d="M168.805 35.856C166.181 35.856 163.877 35.312 161.893 34.224C159.91 33.104 158.357 31.584 157.238 29.664C156.118 27.712 155.557 25.488 155.557 22.992C155.557 20.496 156.085 18.288 157.141 16.368C158.229 14.448 159.701 12.944 161.557 11.856C163.445 10.736 165.557 10.176 167.893 10.176C170.261 10.176 172.357 10.72 174.182 11.808C176.038 12.864 177.493 14.368 178.549 16.32C179.605 18.24 180.133 20.464 180.133 22.992C180.133 23.152 180.117 23.328 180.085 23.52C180.085 23.68 180.085 23.856 180.085 24.048H158.15V21.504H178.262L176.917 22.512C176.917 20.688 176.518 19.072 175.717 17.664C174.949 16.224 173.893 15.104 172.549 14.304C171.206 13.504 169.653 13.104 167.893 13.104C166.165 13.104 164.614 13.504 163.238 14.304C161.861 15.104 160.79 16.224 160.021 17.664C159.253 19.104 158.87 20.752 158.87 22.608V23.136C158.87 25.056 159.285 26.752 160.117 28.224C160.981 29.664 162.165 30.8 163.669 31.632C165.205 32.432 166.95 32.832 168.902 32.832C170.438 32.832 171.862 32.56 173.174 32.016C174.518 31.472 175.669 30.64 176.63 29.52L178.549 31.728C177.43 33.072 176.021 34.096 174.326 34.8C172.661 35.504 170.822 35.856 168.805 35.856Z" fill="white" fill-opacity="0.9"/>
<path d="M193.838 35.856C191.758 35.856 189.79 35.568 187.934 34.992C186.078 34.384 184.622 33.632 183.566 32.736L185.102 30.048C186.126 30.816 187.438 31.488 189.038 32.064C190.638 32.608 192.318 32.88 194.078 32.88C196.478 32.88 198.206 32.512 199.262 31.776C200.318 31.008 200.846 30 200.846 28.752C200.846 27.824 200.542 27.104 199.934 26.592C199.358 26.048 198.59 25.648 197.63 25.392C196.67 25.104 195.598 24.864 194.414 24.672C193.23 24.48 192.046 24.256 190.862 24C189.71 23.744 188.654 23.376 187.694 22.896C186.734 22.384 185.95 21.696 185.342 20.832C184.766 19.968 184.478 18.816 184.478 17.376C184.478 16 184.862 14.768 185.63 13.68C186.398 12.592 187.518 11.744 188.99 11.136C190.494 10.496 192.318 10.176 194.462 10.176C196.094 10.176 197.726 10.4 199.358 10.848C200.99 11.264 202.334 11.824 203.39 12.528L201.902 15.264C200.782 14.496 199.582 13.952 198.302 13.632C197.022 13.28 195.742 13.104 194.462 13.104C192.19 13.104 190.51 13.504 189.422 14.304C188.366 15.072 187.838 16.064 187.838 17.28C187.838 18.24 188.126 18.992 188.702 19.536C189.31 20.08 190.094 20.512 191.054 20.832C192.046 21.12 193.118 21.36 194.27 21.552C195.454 21.744 196.622 21.984 197.774 22.272C198.958 22.528 200.03 22.896 200.99 23.376C201.982 23.824 202.766 24.48 203.342 25.344C203.95 26.176 204.254 27.28 204.254 28.656C204.254 30.128 203.838 31.408 203.006 32.496C202.206 33.552 201.022 34.384 199.454 34.992C197.918 35.568 196.046 35.856 193.838 35.856Z" fill="white" fill-opacity="0.9"/>
<path d="M218.476 35.856C216.108 35.856 214.284 35.216 213.004 33.936C211.724 32.656 211.084 30.848 211.084 28.512V4.848H214.492V28.32C214.492 29.792 214.86 30.928 215.596 31.728C216.364 32.528 217.452 32.928 218.86 32.928C220.364 32.928 221.612 32.496 222.604 31.632L223.804 34.08C223.132 34.688 222.316 35.136 221.356 35.424C220.428 35.712 219.468 35.856 218.476 35.856ZM206.572 13.248V10.416H222.172V13.248H206.572Z" fill="white" fill-opacity="0.9"/>
</svg>
