<svg width="224" height="37" fill="none" xmlns="http://www.w3.org/2000/svg"><path d="m0 35.616 14.688-33.6h11.136l14.688 33.6H28.8L17.952 7.392h4.416L11.52 35.616H0Zm8.736-5.856 2.88-8.16h15.456l2.88 8.16H8.736ZM52.46 36.096c-2.08 0-3.969-.416-5.665-1.248-1.664-.864-2.976-2.192-3.936-3.984-.96-1.824-1.44-4.16-1.44-7.008V9.36h10.848v12.624c0 1.856.304 3.152.912 3.888.608.736 1.44 1.104 2.496 1.104.64 0 1.232-.16 1.776-.48.576-.352 1.04-.912 1.392-1.68.352-.8.528-1.84.528-3.12V9.36H70.22v26.256H59.9v-7.584l2.064 2.064c-.928 2.048-2.256 3.568-3.984 4.56-1.696.96-3.536 1.44-5.52 1.44ZM87.703 36.096c-3.616 0-6.432-.864-8.448-2.592-2.016-1.76-3.024-4.448-3.024-8.064V3.456h10.848v21.888c0 .8.208 1.424.624 1.872.448.448.992.672 1.632.672.928 0 1.744-.24 2.448-.72l2.592 7.536c-.832.48-1.84.832-3.024 1.056a19.089 19.089 0 0 1-3.648.336ZM72.63 18.72V10.8h19.824v7.92H72.63ZM115.349 8.88c2.016 0 3.84.416 5.472 1.248 1.632.8 2.912 2.064 3.84 3.792.96 1.728 1.44 3.968 1.44 6.72v14.976h-10.848V22.512c0-1.632-.288-2.784-.864-3.456-.576-.704-1.36-1.056-2.352-1.056-.736 0-1.424.176-2.064.528-.608.32-1.104.864-1.488 1.632-.352.768-.528 1.808-.528 3.12v12.336H97.109V0h10.848v17.04l-2.592-2.208c1.024-1.984 2.4-3.472 4.128-4.464 1.76-.992 3.712-1.488 5.856-1.488ZM140.412 35.616V5.088h-11.808V2.016h27.168v3.072h-11.808v30.528h-3.552ZM168.805 35.856c-2.624 0-4.928-.544-6.912-1.632-1.983-1.12-3.536-2.64-4.655-4.56-1.12-1.952-1.681-4.176-1.681-6.672 0-2.496.528-4.704 1.584-6.624 1.088-1.92 2.56-3.424 4.416-4.512 1.888-1.12 4-1.68 6.336-1.68 2.368 0 4.464.544 6.289 1.632 1.856 1.056 3.311 2.56 4.367 4.512 1.056 1.92 1.584 4.144 1.584 6.672 0 .16-.016.336-.048.528v.528H158.15v-2.544h20.112l-1.345 1.008c0-1.824-.399-3.44-1.2-4.848-.768-1.44-1.824-2.56-3.168-3.36-1.343-.8-2.896-1.2-4.656-1.2-1.728 0-3.279.4-4.655 1.2-1.377.8-2.448 1.92-3.217 3.36-.768 1.44-1.151 3.088-1.151 4.944v.528c0 1.92.415 3.616 1.247 5.088.864 1.44 2.048 2.576 3.552 3.408 1.536.8 3.281 1.2 5.233 1.2 1.536 0 2.96-.272 4.272-.816a8.894 8.894 0 0 0 3.456-2.496l1.919 2.208c-1.119 1.344-2.528 2.368-4.223 3.072-1.665.704-3.504 1.056-5.521 1.056ZM193.838 35.856c-2.08 0-4.048-.288-5.904-.864-1.856-.608-3.312-1.36-4.368-2.256l1.536-2.688c1.024.768 2.336 1.44 3.936 2.016 1.6.544 3.28.816 5.04.816 2.4 0 4.128-.368 5.184-1.104 1.056-.768 1.584-1.776 1.584-3.024 0-.928-.304-1.648-.912-2.16-.576-.544-1.344-.944-2.304-1.2a25.36 25.36 0 0 0-3.216-.72 69.283 69.283 0 0 1-3.552-.672 13.7 13.7 0 0 1-3.168-1.104 6.663 6.663 0 0 1-2.352-2.064c-.576-.864-.864-2.016-.864-3.456 0-1.376.384-2.608 1.152-3.696.768-1.088 1.888-1.936 3.36-2.544 1.504-.64 3.328-.96 5.472-.96 1.632 0 3.264.224 4.896.672 1.632.416 2.976.976 4.032 1.68l-1.488 2.736a11.073 11.073 0 0 0-3.6-1.632 14.426 14.426 0 0 0-3.84-.528c-2.272 0-3.952.4-5.04 1.2-1.056.768-1.584 1.76-1.584 2.976 0 .96.288 1.712.864 2.256.608.544 1.392.976 2.352 1.296.992.288 2.064.528 3.216.72 1.184.192 2.352.432 3.504.72 1.184.256 2.256.624 3.216 1.104.992.448 1.776 1.104 2.352 1.968.608.832.912 1.936.912 3.312 0 1.472-.416 2.752-1.248 3.84-.8 1.056-1.984 1.888-3.552 2.496-1.536.576-3.408.864-5.616.864ZM218.476 35.856c-2.368 0-4.192-.64-5.472-1.92-1.28-1.28-1.92-3.088-1.92-5.424V4.848h3.408V28.32c0 1.472.368 2.608 1.104 3.408.768.8 1.856 1.2 3.264 1.2 1.504 0 2.752-.432 3.744-1.296l1.2 2.448c-.672.608-1.488 1.056-2.448 1.344a9.66 9.66 0 0 1-2.88.432Zm-11.904-22.608v-2.832h15.6v2.832h-15.6Z" fill="#0F141E"/></svg>