<svg width="18" height="18" viewBox="0 0 18 18" fill="none" xmlns="http://www.w3.org/2000/svg">
<path d="M10.1252 4.87517C10.1252 5.17354 10.0066 5.45969 9.79566 5.67067C9.58468 5.88164 9.29853 6.00017 9.00016 6.00017C8.70179 6.00017 8.41565 5.88164 8.20467 5.67067C7.99369 5.45969 7.87516 5.17354 7.87516 4.87517C7.87516 4.5768 7.99369 4.29065 8.20467 4.07967C8.41565 3.8687 8.70179 3.75017 9.00016 3.75017C9.29853 3.75017 9.58468 3.8687 9.79566 4.07967C10.0066 4.29065 10.1252 4.5768 10.1252 4.87517ZM18.0002 14.2502V9.25517C18.0281 6.94326 17.1805 4.70634 15.6274 2.99355C14.0743 1.28076 11.9308 0.218897 9.62716 0.0211693C8.3414 -0.0687874 7.05131 0.118474 5.84419 0.570284C4.63707 1.02209 3.54107 1.72791 2.63035 2.63998C1.71963 3.55205 1.01544 4.64909 0.565418 5.85689C0.115398 7.06468 -0.0699507 8.35504 0.021912 9.64067C0.353412 14.4062 4.56166 18.0002 9.81241 18.0002H14.2502C15.2444 17.999 16.1975 17.6035 16.9005 16.9005C17.6035 16.1975 17.999 15.2444 18.0002 14.2502ZM9.52516 1.51817C11.45 1.68845 13.2391 2.58085 14.533 4.01609C15.8269 5.45132 16.5297 7.32304 16.5002 9.25517V14.2502C16.5002 14.8469 16.2631 15.4192 15.8412 15.8412C15.4192 16.2631 14.8469 16.5002 14.2502 16.5002H9.81241C5.28691 16.5002 1.80016 13.5752 1.51891 9.53717C1.44508 8.50861 1.58414 7.47587 1.92742 6.50347C2.27071 5.53108 2.81083 4.63992 3.51404 3.88567C4.21726 3.13143 5.06846 2.5303 6.01446 2.11986C6.96047 1.70941 7.98095 1.49845 9.01216 1.50017C9.18241 1.50017 9.35416 1.50692 9.52516 1.51817ZM10.5002 13.5002V9.00017C10.5002 8.60235 10.3421 8.22082 10.0608 7.93951C9.77952 7.65821 9.39799 7.50017 9.00016 7.50017H8.25016C8.05125 7.50017 7.86049 7.57919 7.71983 7.71984C7.57918 7.86049 7.50016 8.05126 7.50016 8.25017C7.50016 8.44908 7.57918 8.63985 7.71983 8.7805C7.86049 8.92115 8.05125 9.00017 8.25016 9.00017H9.00016V13.5002C9.00016 13.6991 9.07918 13.8898 9.21983 14.0305C9.36049 14.1712 9.55125 14.2502 9.75016 14.2502C9.94908 14.2502 10.1398 14.1712 10.2805 14.0305C10.4211 13.8898 10.5002 13.6991 10.5002 13.5002Z" fill="black"/>
</svg>
