<svg width="28" height="28" viewBox="0 0 28 28" fill="none" xmlns="http://www.w3.org/2000/svg">
<g clip-path="url(#clip0_19_265)">
<path d="M23.7033 5.09831C21.9183 4.27931 20.0049 3.67615 18.0041 3.33081C17.9679 3.32381 17.9318 3.34131 17.9119 3.37398C17.6658 3.81148 17.3928 4.38315 17.2026 4.83115C15.0501 4.50915 12.9093 4.50915 10.8011 4.83115C10.6109 4.37265 10.3274 3.81148 10.0813 3.37398C10.0614 3.34131 10.0253 3.32498 9.9891 3.33081C7.98943 3.67498 6.0761 4.27815 4.28994 5.09831C4.27477 5.10415 4.26077 5.11581 4.2526 5.12981C0.623102 10.5525 -0.372065 15.8421 0.115602 21.0665C0.117935 21.0921 0.131935 21.1166 0.151768 21.1318C2.54694 22.8911 4.86627 23.9586 7.1436 24.6656C7.17977 24.6773 7.21827 24.6633 7.2416 24.633C7.7806 23.898 8.2601 23.1221 8.67194 22.3066C8.69643 22.2588 8.6731 22.2016 8.62293 22.183C7.8611 21.8936 7.1366 21.5413 6.43893 21.1423C6.3841 21.1096 6.37944 21.0315 6.4296 20.993C6.5766 20.8833 6.7236 20.769 6.8636 20.6535C6.88927 20.6325 6.92427 20.6278 6.9546 20.6418C11.5373 22.7336 16.4979 22.7336 21.0258 20.6418C21.0561 20.6278 21.0911 20.6313 21.1179 20.6535C21.2579 20.769 21.4049 20.8845 21.5531 20.9941C21.6044 21.0315 21.6009 21.1108 21.5449 21.1435C20.8473 21.5506 20.1228 21.896 19.3598 22.183C19.3096 22.2016 19.2886 22.26 19.3119 22.3078C19.7319 23.1221 20.2126 23.898 20.7411 24.633C20.7633 24.6645 20.8029 24.6773 20.8391 24.6668C23.1269 23.9586 25.4474 22.8911 27.8414 21.133C27.8624 21.1178 27.8753 21.0945 27.8776 21.0688C28.4609 15.029 26.8999 9.78248 23.7383 5.13215C23.7324 5.11581 23.7184 5.10415 23.7033 5.09831ZM9.35677 17.8861C7.9766 17.8861 6.84027 16.6191 6.84027 15.064C6.84027 13.5088 7.95443 12.2418 9.35677 12.2418C10.7696 12.2418 11.8954 13.5193 11.8733 15.064C11.8733 16.6203 10.7579 17.8861 9.35677 17.8861ZM18.6609 17.8861C17.2819 17.8861 16.1444 16.6191 16.1444 15.064C16.1444 13.5088 17.2586 12.2418 18.6609 12.2418C20.0738 12.2418 21.1996 13.5193 21.1774 15.064C21.1774 16.6203 20.0738 17.8861 18.6609 17.8861Z" fill="#484848"/>
</g>
<defs>
<clipPath id="clip0_19_265">
<rect width="28" height="28" fill="white"/>
</clipPath>
</defs>
</svg>
