<svg width="28" height="28" viewBox="0 0 28 28" fill="none" xmlns="http://www.w3.org/2000/svg">
<g clip-path="url(#clip0_19_255)">
<path fill-rule="evenodd" clip-rule="evenodd" d="M14 0.345337C6.2685 0.345337 0 6.61267 0 14.3453C0 20.531 4.011 25.7787 9.57367 27.6302C10.2737 27.7597 10.5303 27.3268 10.5303 26.957C10.5303 26.6233 10.5175 25.5208 10.5117 24.3507C6.61733 25.1977 5.79483 22.6987 5.79483 22.6987C5.15783 21.0805 4.24083 20.65 4.24083 20.65C2.97033 19.7808 4.3365 19.7995 4.3365 19.7995C5.74233 19.8987 6.482 21.2427 6.482 21.2427C7.73033 23.3823 9.75683 22.764 10.556 22.4058C10.682 21.5005 11.0448 20.8833 11.445 20.5333C8.33583 20.1798 5.06683 18.9793 5.06683 13.615C5.06683 12.0867 5.614 10.8372 6.51 9.85717C6.36417 9.50367 5.88467 8.08034 6.64533 6.15184C6.64533 6.15184 7.82133 5.77617 10.4965 7.58684C11.613 7.2765 12.81 7.12134 14 7.1155C15.19 7.12134 16.3882 7.2765 17.507 7.58684C20.1787 5.775 21.3535 6.15184 21.3535 6.15184C22.1153 8.08034 21.6358 9.50367 21.4912 9.85717C22.3883 10.8372 22.932 12.0867 22.932 13.615C22.932 18.9922 19.6572 20.1763 16.5398 20.5228C17.0415 20.9568 17.4895 21.8097 17.4895 23.1152C17.4895 24.9888 17.4732 26.4962 17.4732 26.957C17.4732 27.3292 17.7252 27.7667 18.4345 27.629C23.9948 25.7752 28.0012 20.5298 28.0012 14.3465C28 6.61384 21.7315 0.345337 14 0.345337Z" fill="#484848"/>
<path d="M5.30229 20.447C5.27196 20.517 5.16229 20.538 5.06196 20.4902C4.96046 20.4447 4.90329 20.349 4.93596 20.2802C4.96629 20.209 5.07596 20.1892 5.17746 20.237C5.27896 20.2813 5.33729 20.377 5.30229 20.447Z" fill="#484848"/>
<path d="M5.86956 21.0794C5.80306 21.1412 5.6724 21.112 5.58373 21.0152C5.49156 20.9172 5.47523 20.7865 5.5429 20.7247C5.61173 20.6629 5.73773 20.692 5.8299 20.79C5.92206 20.8869 5.93956 21.0164 5.86956 21.0794Z" fill="#484848"/>
<path d="M6.42156 21.8855C6.33523 21.945 6.19523 21.889 6.10889 21.7653C6.02256 21.6405 6.02256 21.4912 6.11123 21.4317C6.19756 21.3722 6.33639 21.4258 6.42389 21.5495C6.50906 21.6755 6.50906 21.8248 6.42156 21.8855Z" fill="#484848"/>
<path d="M7.17752 22.6648C7.10052 22.75 6.93719 22.7266 6.81819 22.6111C6.69569 22.498 6.66186 22.3381 6.73886 22.253C6.81702 22.1678 6.98152 22.1923 7.10169 22.3066C7.22302 22.4198 7.25919 22.5808 7.17752 22.6648Z" fill="#484848"/>
<path d="M8.22159 23.1163C8.18775 23.226 8.03025 23.2762 7.87159 23.2295C7.71292 23.1817 7.60909 23.0533 7.64175 22.9425C7.67442 22.8317 7.83309 22.7803 7.99292 22.8305C8.15042 22.8772 8.25425 23.0055 8.22159 23.1163Z" fill="#484848"/>
<path d="M9.36714 23.2004C9.37064 23.3159 9.23647 23.4115 9.06964 23.4139C8.9028 23.4174 8.7663 23.324 8.76514 23.2109C8.76514 23.0942 8.89697 22.9997 9.0638 22.9962C9.23064 22.9927 9.36714 23.086 9.36714 23.2004Z" fill="#484848"/>
<path d="M10.4336 23.0195C10.4534 23.1315 10.3379 23.2482 10.1723 23.2785C10.0101 23.3089 9.85961 23.2389 9.83861 23.1269C9.81877 23.0114 9.93661 22.8959 10.0988 22.8655C10.2633 22.8364 10.4126 22.904 10.4336 23.0195Z" fill="#484848"/>
</g>
<defs>
<clipPath id="clip0_19_255">
<rect width="28" height="28" fill="white"/>
</clipPath>
</defs>
</svg>
