<svg width="28" height="28" viewBox="0 0 28 28" fill="none" xmlns="http://www.w3.org/2000/svg">
<g clip-path="url(#clip0_19_250)">
<path d="M26.8358 25.1814H27.1007L26.5932 24.4137C26.9035 24.4137 27.068 24.2165 27.0703 23.975C27.0703 23.9657 27.0703 23.9552 27.0692 23.9459C27.0692 23.6169 26.8708 23.4594 26.4637 23.4594H25.8057V25.1814H26.053V24.4312H26.3575L26.8358 25.1814ZM26.34 24.2364H26.053V23.6542H26.417C26.6048 23.6542 26.8195 23.6845 26.8195 23.9307C26.8195 24.213 26.6025 24.2364 26.3388 24.2364" fill="#484848"/>
<path d="M20.1728 22.2518H16.6647V16.758C16.6647 15.4479 16.6413 13.762 14.84 13.762C13.013 13.762 12.733 15.1888 12.733 16.6635V22.2518H9.226V10.9538H12.5942V12.4973H12.6408C13.328 11.3237 14.6043 10.6225 15.9635 10.6727C19.5195 10.6727 20.174 13.0119 20.174 16.0534L20.1728 22.2518ZM5.2675 9.40918C4.14283 9.40918 3.23167 8.49802 3.23167 7.37335C3.23167 6.24868 4.14283 5.33752 5.2675 5.33752C6.39217 5.33752 7.30333 6.24868 7.30333 7.37335C7.30333 8.49802 6.39217 9.40918 5.2675 9.40918ZM7.021 22.2518H3.50933V10.9538H7.021V22.2518ZM21.9217 2.08018H1.7465C0.793333 2.06968 0.0116667 2.83385 0 3.78702V24.045C0.0116667 24.9993 0.793333 25.7635 1.7465 25.753H21.9217C22.8772 25.7647 23.6623 25.0005 23.6752 24.045V3.78585C23.6612 2.83035 22.876 2.06618 21.9217 2.07902" fill="#484848"/>
<path d="M26.3704 22.6929C25.4791 22.701 24.7627 23.4314 24.7721 24.3227C24.7802 25.214 25.5106 25.9304 26.4019 25.921C27.2932 25.9129 28.0096 25.1825 28.0002 24.2912C27.9921 23.4115 27.2804 22.701 26.4019 22.6929H26.3704ZM26.4077 25.7355C25.6261 25.7484 24.9447 25.1265 24.9319 24.3449C24.9191 23.5632 25.5421 22.9192 26.3237 22.9064C27.1054 22.8935 27.7494 23.5165 27.7622 24.2982C27.7622 24.3064 27.7622 24.3134 27.7622 24.3215C27.7786 25.0857 27.1719 25.7192 26.4077 25.7355H26.3716H26.4077Z" fill="#484848"/>
</g>
<defs>
<clipPath id="clip0_19_250">
<rect width="28" height="28" fill="white"/>
</clipPath>
</defs>
</svg>
