<svg width="18" height="18" viewBox="0 0 18 18" fill="none" xmlns="http://www.w3.org/2000/svg">
<path d="M6.0012 15.75H2.55796C2.38872 15.7496 2.25161 15.6125 2.25122 15.4433V2.55674C2.25164 2.3875 2.38872 2.25039 2.55796 2.25H6.0012C6.62251 2.25 7.1262 1.74632 7.1262 1.125C7.1262 0.503684 6.62251 0 6.0012 0H2.55796C1.14658 0.00165234 0.00287305 1.14539 0.0012207 2.55674V15.4432C0.00287305 16.8546 1.14658 17.9983 2.55796 18H6.0012C6.62251 18 7.1262 17.4963 7.1262 16.875C7.1262 16.2537 6.62251 15.75 6.0012 15.75Z" fill="#FF5C5C"/>
<path d="M17.0127 6.6135L14.1012 3.70425C13.6617 3.26497 12.9494 3.26515 12.5101 3.70464C12.0708 4.14413 12.071 4.8565 12.5105 5.29578L15.0695 7.85403L4.87622 7.87501C4.2549 7.87501 3.75122 8.3787 3.75122 9.00001C3.75122 9.62133 4.2549 10.125 4.87622 10.125L15.1107 10.1063L12.5105 12.7065C12.0871 13.1613 12.1126 13.8732 12.5674 14.2965C12.9996 14.6989 13.6694 14.6986 14.1012 14.2958L17.0105 11.3865C18.3285 10.0685 18.3285 7.93158 17.0105 6.61357L17.0105 6.61354L17.0127 6.6135Z" fill="#FF5C5C"/>
</svg>
